<svg xmlns="http://www.w3.org/2000/svg" xmlns:xlink="http://www.w3.org/1999/xlink" width="100" zoomAndPan="magnify" viewBox="0 0 75 60" height="80" preserveAspectRatio="xMidYMid meet" version="1.0"><path fill="#ff3131" d="M 48.398438 28.441406 L 60.804688 20.871094 L 66.363281 31.816406 C 67.707031 37.796875 60.347656 39.992188 54.441406 39.636719 Z M 48.398438 28.441406 " fill-opacity="1" fill-rule="evenodd"/><path fill="#ff3131" d="M 45.582031 36.261719 L 39.054688 48.03125 L 45.582031 59.964844 L 45.742188 55.191406 L 51.703125 55.191406 C 53.878906 55.382812 56.695312 53.929688 57.742188 51.816406 L 65.398438 37.496094 C 62.871094 40.046875 59.628906 40.703125 55.890625 40.703125 L 45.824219 40.703125 Z M 45.582031 36.261719 " fill-opacity="1" fill-rule="evenodd"/><path fill="#ff3131" d="M 31.003906 21.75 L 18.503906 14.34375 L 25.171875 4.066406 C 29.636719 -0.0351562 35.085938 5.472656 37.648438 10.921875 Z M 31.003906 21.75 " fill-opacity="1" fill-rule="evenodd"/><path fill="#ff3131" d="M 39.0625 20.472656 L 52.300781 20.589844 L 59.34375 8.96875 L 55.183594 11.140625 L 52.289062 5.816406 C 51.398438 3.78125 48.785156 1.96875 46.46875 2.058594 L 30.5 2.175781 C 33.910156 3.191406 36.046875 5.769531 37.859375 9.105469 L 42.746094 18.101562 Z M 39.0625 20.472656 " fill-opacity="1" fill-rule="evenodd"/><path fill="#ff3131" d="M 8.9375 21.136719 L 12.8125 24.164062 L 9.164062 31.148438 C 7.34375 34.367188 10.472656 37.503906 12.46875 38.597656 C 14.433594 39.671875 17.480469 39.796875 20.328125 39.757812 L 25.457031 31.378906 L 29.328125 33.476562 L 22.609375 21.019531 Z M 8.9375 21.136719 " fill-opacity="1" fill-rule="evenodd"/><path fill="#ff3131" d="M 9.507812 37.316406 L 17.824219 52.679688 C 19.492188 54.8125 22.644531 55.316406 25.910156 55.242188 L 34.683594 55.242188 L 34.683594 40.691406 L 18.050781 40.574219 C 15.46875 40.730469 12.089844 40.1875 9.507812 37.316406 Z M 9.507812 37.316406 " fill-opacity="1" fill-rule="evenodd"/></svg>